<svg xmlns="http://www.w3.org/2000/svg" fill="none" viewBox="0 0 24 24" id="Tools--Streamline-Guidance-Free" height="24" width="24"><desc>Tools Streamline Icon: https://streamlinehq.com</desc><path stroke="#000000" d="m6.75 6.75 3.75 3.75M6.75 6.75 8.5 5v-0.25l-1.44 -0.6a12 12 0 0 1 -2.88 -1.706L3 1.5h-0.25L1.5 2.75V3l0.944 1.18A12 12 0 0 1 4.15 7.06l0.6 1.44H5l1.75 -1.75ZM13.734 17a102.1 102.1 0 0 1 4.516 5.5h0.25l4 -4v-0.25s-2.47 -1.852 -5.5 -4.516m0.5 -2.234a5 5 0 0 0 4.584 -7H21.5l-3 3 -2 0 0 -2 3 -3v-0.584a5 5 0 0 0 -6.703 6.287L11 10c-4.5 4.5 -9.5 8.25 -9.5 8.25v0.25l4 4h0.25S9.5 17.5 14 13l1.797 -1.797a4.989 4.989 0 0 0 1.703 0.297Z" stroke-width="1"></path></svg>